# xmcd
#
# Track frame offsets:
#	150
#	13000
#	30680
#	45727
#	64225
#	77237
#	95152
#	112450
#	120787
#	139550
#	161012
#	176265
#	191500
#	206687
#	223642
#	240087
#	259517
#
# Disc length: 3699 seconds
#
# Revision: 1
# Processed by: cddbd v1.5.1PL0 Copyright (c) Steve Scherf et al.
# Submitted via: CDex 1.50Beta5
#
DISCID=e70e7111
DTITLE=GODIEGO - Single B side Collection
DYEAR=1900
DGENRE=J-POP
TTITLE0=NIGHT TIME
TTITLE1=白い小鳥
TTITLE2=スマイル
TTITLE3=イエロー・センター・ライン
TTITLE4=SCREAMING CITY
TTITLE5=NOW YOUR DAYS
TTITLE6=ハウスのテーマ
TTITLE7=YES, I THANK YOU
TTITLE8=水滸伝のテーマ
TTITLE9=セレブレイション
TTITLE10=ア・フール
TTITLE11=ビューティフル・ネーム(英語)
TTITLE12=ハピネス(英語)
TTITLE13=トライ・トゥ・ウェイク・アップ・トゥ・ア・モーニング
TTITLE14=TAKING OFF!
TTITLE15=OVERTURE
TTITLE16=HOLY AND BRIGHT
EXTD=
EXTT0=
EXTT1=
EXTT2=
EXTT3=
EXTT4=
EXTT5=
EXTT6=
EXTT7=
EXTT8=
EXTT9=
EXTT10=
EXTT11=
EXTT12=
EXTT13=
EXTT14=
EXTT15=
EXTT16=
PLAYORDER=
